<?xml version="1.0" encoding="UTF-8" standalone="no"?>
<svg xmlns:dc="http://purl.org/dc/elements/1.1/" xmlns:svg="http://www.w3.org/2000/svg" xmlns="http://www.w3.org/2000/svg" 
  enable-background="new 0 0 250 250" version="1.1" viewBox="0 40 250 150">
  <path fill="#ffffff" d="M 125,52.1 66.8,182.6 h 21.7 l 11.7,-29.2 h 49.4 l 11.7,29.2 H 183 Z m 17,83.3 h -34 l 17,-40.9 z" />
  <path fill="#cccccc" d="M 7.6799999,92.11 C 3.6339,103.453 13.0364,112.272 18.225,116.145 c 4.6863,3.4985 45.054,18.314 49.893,21.869 1.6066,1.1806 2.869,2.9592 3.8555,5.1172 -11.851,-7.7709 -46.96,-13.064 -52.018,-21.658 0.68806,8.4205 6.8355,12.566 14.734,15.4 9.8203,3.5244 34.048,10.676 36.701,14.08 0.55626,0.71369 0.99735,2.0542 1.3574,3.707 -7.0546,-6.903 -37.376,-10.088 -39.68,-14.631 -0.9481,6.5346 7.2263,8.7102 11.676,9.998 4.3159,1.2492 22.468,6.3296 25.225,7.5449 1.5974,0.70428 2.6452,2.4962 3.3398,4.6504 -3.8238,-5.52 -27.5,-5.732 -28.709,-8.9805 0.72002,5.019 8.106,6.4712 9.5254,6.8203 2.3384,0.57511 15.405,2.7702 17.869,7.25 1.111,2.0201 2.6445,9.7598 2.6445,9.7598 2.2352,-5.8239 5.6614,-8.6883 5.4883,-16.021 -0.17315,-7.3332 2.0869,-27.994 -6.3652,-32.123 -20.154,-9.8447 -66.9570001,-23.915 -66.0820001,-36.818 z" />
  <path fill="#b3b3b3" d="m 242.115,92.11 c 4.0461,11.343 -5.3564,20.162 -10.545,24.035 -4.6863,3.4985 -45.054,18.314 -49.893,21.869 -1.6066,1.1806 -2.869,2.9592 -3.8555,5.1172 11.851,-7.7709 46.96,-13.064 52.018,-21.658 -0.68806,8.4205 -6.8355,12.566 -14.734,15.4 -9.8203,3.5244 -34.048,10.676 -36.701,14.08 -0.55626,0.71369 -0.99735,2.0542 -1.3574,3.707 7.0546,-6.903 37.376,-10.088 39.68,-14.631 0.9481,6.5346 -7.2263,8.7102 -11.676,9.998 -4.3159,1.2492 -22.468,6.3296 -25.225,7.5449 -1.5974,0.70428 -2.6452,2.4962 -3.3398,4.6504 3.8238,-5.52 27.5,-5.732 28.709,-8.9805 -0.72002,5.019 -8.106,6.4712 -9.5254,6.8203 -2.3384,0.57511 -15.405,2.7702 -17.869,7.25 -1.111,2.0201 -2.6445,9.7598 -2.6445,9.7598 -2.2352,-5.8239 -5.6614,-8.6883 -5.4883,-16.021 0.17315,-7.3332 -2.0869,-27.994 6.3652,-32.123 20.154,-9.8447 66.957,-23.915 66.082,-36.818 z" />
  <path fill="#dd0031" d="M 125,52.1 66.8,182.6 h 21.7 l 11.7,-29.2 h 49.4 l 11.7,29.2 H 183 Z m 17,83.3 h -34 l 17,-40.9 z" />
  <path fill="#c3002f" d="m 125,52.1 v 42.4 l 17,40.9 h -17 v 18 h 24.602 l 11.699,29.199 H 183 Z" />
</svg>
